<?xml version="1.0" encoding="UTF-8"?>
<svg id="Capa_2" data-name="Capa 2" xmlns="http://www.w3.org/2000/svg" viewBox="0 0 512.32 423.28">
  <g id="Capa_1-2" data-name="Capa 1">
    <g>
      <path d="M50.37,107.34V372.98H404.85v-6c0-36.5,.24-73-.13-109.5-.13-12.77,9.7-23.51,21.03-25.11,13.15-1.87,24.69,5.8,27.81,18.69,1.22,5.05,.87,10.54,.88,15.83,.03,41.04-.02,82.07-.1,123.11,0,4.8,.39,9.78-.7,14.37-2.77,11.71-12.85,18.91-25.35,18.91-80.16,0-160.33,0-240.49,0-53.83,0-107.66,0-161.5,0-15.55,0-26.11-10.62-26.11-26.24C.16,293.04,.25,189.05,0,85.06c-.04-14.58,9.43-27.68,27.63-27.75,16.81-.06,33.62,.14,50.44,.16,29.98,.03,59.97,0,89.95,0,27.17,0,54.33-.02,81.5-.01,13.85,0,25.13,9.5,26.63,22.37,1.44,12.37-7.31,24.41-19.85,27.05-2.56,.54-5.28,.44-7.93,.44-63.83,.03-127.65,.03-191.48,.04-1.99,0-3.98,0-6.52,0Z"/>
      <path d="M426.83,49.6c-2.68,0-4.44,0-6.2,0-20.5,0-40.99,.03-61.49-.01-13-.02-23.26-8.43-25.01-20.39-1.94-13.2,4.7-24.14,17.3-28.15,2.32-.74,4.87-1.04,7.32-1.04C401.45,0,444.16,.22,486.87,0c13.33-.07,25.56,10.85,25.45,26.56-.29,42.16-.07,84.32-.18,126.47-.02,8.77-3.38,16.12-11,21.05-8.15,5.27-16.62,5.9-25.34,1.47-8.97-4.56-13.4-12.25-13.53-21.99-.3-20.83-.09-41.66-.09-62.49,0-1.6,0-3.21,0-4.81-.39-.25-.78-.5-1.17-.75-1.1,1.37-2.09,2.87-3.33,4.11-56.16,56.13-112.32,112.25-168.52,168.35-9.78,9.76-21.22,10.95-32.34,3.56-12.99-8.62-14.56-26.82-3.12-38.3,27.52-27.62,55.14-55.14,82.71-82.71,29.22-29.22,58.43-58.44,87.63-87.68,.77-.77,1.43-1.65,2.78-3.23Z"/>
    </g>
  </g>
</svg>